<?xml version="1.0" standalone="no"?>
<!DOCTYPE svg PUBLIC "-//W3C//DTD SVG 20010904//EN"
 "http://www.w3.org/TR/2001/REC-SVG-20010904/DTD/svg10.dtd">
<svg version="1.0" xmlns="http://www.w3.org/2000/svg"
 width="300.000000pt" height="402.000000pt" viewBox="0 0 300.000000 402.000000"
 preserveAspectRatio="xMidYMid meet">
<metadata>
Created by potrace 1.16, written by Peter Selinger 2001-2019
</metadata>
<g transform="translate(0.000000,402.000000) scale(0.100000,-0.100000)"
fill="#0404cb" stroke="none">
<path d="M1488 3920 c-27 -26 -48 -51 -48 -56 0 -11 98 -110 102 -103 2 2 24
27 50 55 l48 50 -53 51 -52 51 -47 -48z"/>
<path d="M1295 3730 l-50 -50 53 -53 52 -52 52 52 53 53 -50 50 c-27 27 -52
50 -55 50 -3 0 -28 -23 -55 -50z"/>
<path d="M1668 3726 l-48 -52 52 -50 51 -50 50 54 51 53 -49 49 c-27 28 -52
50 -55 49 -3 -1 -26 -25 -52 -53z"/>
<path d="M1510 3487 c-3 -3 -34 -8 -70 -11 -107 -9 -171 -16 -250 -26 -41 -5
-106 -12 -145 -15 -38 -4 -124 -13 -190 -20 -66 -8 -149 -17 -185 -20 -36 -4
-141 -15 -235 -25 -93 -11 -204 -22 -245 -25 -41 -4 -77 -8 -78 -10 -2 -2 8
-19 22 -37 14 -19 30 -56 36 -84 6 -31 11 -447 13 -1164 l2 -1115 22 -53 c53
-130 136 -229 244 -293 61 -36 163 -73 509 -181 358 -111 468 -155 548 -215
l32 -24 31 25 c60 51 186 100 577 226 218 70 424 141 457 158 131 67 242 212
275 357 6 25 10 490 10 1136 1 1170 1 1160 51 1230 11 17 20 32 18 34 -2 1
-35 6 -74 9 -67 5 -238 24 -615 66 -96 11 -204 22 -240 25 -36 3 -121 12 -190
20 -69 8 -154 17 -190 20 -36 3 -81 8 -100 11 -20 3 -38 3 -40 1z m134 -141
c33 -4 115 -13 181 -21 66 -8 149 -17 185 -20 36 -3 142 -14 235 -24 94 -11
248 -27 343 -37 l172 -18 -2 -779 -3 -779 -120 -38 c-66 -21 -126 -40 -134
-42 -9 -2 -15 8 -18 27 -14 94 -96 281 -166 375 -177 240 -442 384 -732 397
-226 10 -400 -39 -590 -166 -196 -131 -369 -387 -400 -594 -6 -39 -11 -47 -24
-42 -9 4 -71 25 -138 47 l-123 39 0 778 0 777 118 13 c64 6 142 14 172 17 30
3 111 11 180 19 69 8 175 20 235 25 61 6 146 15 190 20 44 5 109 12 145 16 36
4 85 9 109 13 49 7 94 6 185 -3z m-174 -1322 l0 -226 -77 6 c-195 16 -213 18
-213 33 0 26 60 169 96 229 43 72 85 118 143 155 25 16 46 29 48 29 2 0 3
-102 3 -226z m262 128 c79 -86 188 -316 155 -327 -19 -6 -95 -14 -194 -21
l-93 -6 0 226 0 226 38 -19 c21 -11 63 -46 94 -79z m-544 21 c-43 -50 -138
-261 -138 -306 0 -13 -5 -17 -17 -13 -10 3 -53 15 -95 27 -43 12 -78 25 -78
28 0 4 29 39 65 78 58 63 135 123 235 181 44 26 47 26 28 5z m770 -31 c97 -59
235 -185 250 -230 2 -8 -168 -66 -173 -60 -1 2 -12 32 -24 68 -26 74 -96 217
-119 243 -24 27 -2 20 66 -21z m-1055 -390 c65 -21 116 -40 113 -43 -7 -7 -15
-66 -22 -164 l-6 -91 -135 44 -135 44 6 46 c4 35 55 203 60 202 1 0 54 -17
119 -38z m1406 -14 c23 -60 56 -186 49 -193 -2 -2 -64 -24 -138 -48 l-135 -43
0 25 c-1 51 -15 197 -21 218 -5 19 0 23 38 33 23 6 72 21 108 35 36 13 68 24
71 24 4 1 16 -23 28 -51z m-999 -62 c36 -3 86 -5 113 -6 l47 0 0 -236 0 -236
-61 56 c-72 67 -140 108 -227 137 l-63 21 6 97 c3 53 8 105 10 116 2 11 4 32
4 46 1 26 2 26 54 18 28 -4 81 -10 117 -13z m637 -147 l6 -115 -76 -28 c-87
-32 -173 -88 -234 -154 l-43 -45 0 242 0 241 43 0 c61 1 195 11 242 19 37 6
41 5 48 -19 4 -14 10 -77 14 -141z m-1277 -114 c503 -160 513 -163 576 -201
76 -46 99 -67 142 -134 73 -113 80 -150 82 -446 0 -145 -2 -264 -5 -264 -3 0
-22 9 -43 19 -37 19 -204 75 -642 215 -135 43 -255 88 -281 104 -61 39 -126
117 -157 188 -26 58 -26 64 -30 346 -3 235 -1 287 10 284 7 -3 164 -52 348
-111z m2070 -491 c-28 -84 -84 -160 -150 -205 -56 -38 -84 -47 -635 -224 -132
-43 -264 -88 -293 -101 -30 -13 -56 -24 -58 -24 -2 0 -4 105 -4 233 0 320 22
410 125 525 82 91 123 111 430 208 99 31 186 59 193 62 9 3 12 -30 12 -147 0
-83 3 -151 8 -151 4 0 15 15 25 33 10 17 31 48 47 66 l30 35 45 -32 c25 -18
48 -32 50 -32 3 0 5 67 5 150 l0 149 93 29 92 29 3 -270 c2 -251 1 -275 -18
-333z"/>
<path d="M1465 3101 c-125 -33 -198 -133 -199 -272 0 -117 46 -199 139 -247
41 -21 64 -26 130 -26 91 -1 137 18 191 76 58 62 64 77 64 160 l0 78 -141 0
-140 0 3 -52 3 -53 78 0 c80 0 88 -5 62 -41 -36 -52 -134 -67 -192 -29 -87 58
-80 226 12 269 51 24 108 16 149 -21 28 -25 37 -28 94 -25 73 3 77 13 33 82
-38 61 -108 99 -193 105 -35 2 -76 1 -93 -4z"/>
<path d="M690 2923 c1 -198 7 -232 49 -290 72 -100 252 -110 339 -20 56 58 63
88 63 295 l0 187 -65 3 -66 3 0 -169 c0 -94 -5 -183 -11 -200 -14 -40 -57 -58
-107 -46 -56 14 -62 34 -62 237 l0 177 -70 0 -71 0 1 -177z"/>
<path d="M1910 2829 l0 -270 173 3 c172 3 174 3 210 30 41 32 62 84 52 134 -7
39 -59 104 -84 104 -11 1 -7 5 10 15 41 22 59 58 59 119 0 50 -4 59 -34 89
-42 43 -65 47 -242 47 l-144 0 0 -271z m272 144 c22 -20 23 -51 1 -75 -12 -14
-31 -18 -80 -18 l-63 0 0 55 0 55 62 0 c43 0 67 -5 80 -17z m-8 -195 c29 -13
40 -39 32 -73 -7 -29 -61 -48 -121 -43 l-40 3 -3 49 c-2 27 -1 55 2 62 7 17
94 19 130 2z"/>
</g>
</svg>
